<svg width="32" height="32" viewBox="0 0 32 32" fill="none" xmlns="http://www.w3.org/2000/svg">
<path d="M5.33366 26.6666C4.60033 26.6666 3.97277 26.4057 3.45099 25.8839C2.92833 25.3613 2.66699 24.7333 2.66699 23.9999V7.99992C2.66699 7.26659 2.92833 6.63903 3.45099 6.11725C3.97277 5.59459 4.60033 5.33325 5.33366 5.33325H26.667C27.4003 5.33325 28.0283 5.59459 28.551 6.11725C29.0728 6.63903 29.3337 7.26659 29.3337 7.99992V23.9999C29.3337 24.7333 29.0728 25.3613 28.551 25.8839C28.0283 26.4057 27.4003 26.6666 26.667 26.6666H5.33366ZM5.33366 10.6666V15.9999H26.667V10.6666H5.33366Z" fill="black"/>
</svg>
