<svg width="32" height="32" viewBox="0 0 32 32" fill="none" xmlns="http://www.w3.org/2000/svg">
<g clip-path="url(#clip0_150_395)">
<path d="M20.5996 22.0265L16.5862 18.0132C16.4396 17.8665 16.2662 17.8398 16.1729 17.8398C16.0796 17.8398 15.9062 17.8665 15.7596 18.0132L11.7329 22.0398C11.2796 22.4932 10.5729 23.2265 8.21289 23.2265L13.1596 28.1598C14.7196 29.7198 17.2529 29.7198 18.8129 28.1598L23.7729 23.2132C22.5596 23.2132 21.5462 22.9732 20.5996 22.0265Z" fill="black"/>
<path d="M11.7329 9.95992L15.7596 13.9866C15.8663 14.0933 16.0263 14.1599 16.1729 14.1599C16.3196 14.1599 16.4796 14.0933 16.5863 13.9866L20.5729 9.99992C21.5196 9.01325 22.5996 8.78659 23.8129 8.78659L18.8529 3.83992C17.2929 2.27992 14.7596 2.27992 13.1996 3.83992L8.25293 8.77325C10.5996 8.77325 11.3196 9.54659 11.7329 9.95992Z" fill="black"/>
<path d="M28.1466 13.1333L25.1466 10.1199H23.4666C22.7466 10.1199 22.0266 10.4133 21.5333 10.9333L17.5333 14.9333C17.1599 15.3066 16.6666 15.4933 16.1733 15.4933C15.6933 15.4933 15.1866 15.2933 14.8133 14.9333L10.7866 10.8933C10.2799 10.3866 9.58659 10.0933 8.85326 10.0933H6.89326L3.83992 13.1599C2.27992 14.7199 2.27992 17.2533 3.83992 18.8133L6.89326 21.8799H8.86659C9.58659 21.8799 10.2799 21.5866 10.7999 21.0799L14.8266 17.0533C15.1999 16.6799 15.6933 16.4933 16.1866 16.4933C16.6799 16.4933 17.1733 16.6799 17.5466 17.0533L21.5599 21.0666C22.0666 21.5733 22.7599 21.8666 23.4933 21.8666H25.1733L28.1733 18.8533C29.7333 17.2799 29.7333 14.7199 28.1466 13.1333Z" fill="black"/>
</g>
<defs>
<clipPath id="clip0_150_395">
<rect width="32" height="32" fill="white"/>
</clipPath>
</defs>
</svg>
